<?xml version="1.0" encoding="utf-8"?>
<!-- Generator: Adobe Illustrator 16.0.0, SVG Export Plug-In . SVG Version: 6.00 Build 0)  -->
<!DOCTYPE svg PUBLIC "-//W3C//DTD SVG 1.1//EN" "http://www.w3.org/Graphics/SVG/1.1/DTD/svg11.dtd">
<svg version="1.1" id="Layer_1" xmlns="http://www.w3.org/2000/svg" xmlns:xlink="http://www.w3.org/1999/xlink" x="0px" y="0px"
	 width="960px" height="560px" viewBox="0 0 960 560" enable-background="new 0 0 960 560" xml:space="preserve">
<g>
	<path fill="#CA3836" d="M310.079,115.88v144.855H165.226V115.88H310.079z M189.367,140.027v96.565h48.286v-72.427h24.138v72.427
		h24.144v-96.565H189.367z"/>
	<path fill="#CA3836" d="M9.779,115.88h145.265v36.318h-36.315v36.314h36.315v72.63H9.779v-36.315h72.635v-36.315H9.779V115.88z"/>
	<path fill="#CA3836" d="M320.261,115.88h145.265v145.263H320.261V115.88z M392.896,152.198v72.63h36.315v-72.63H392.896z"/>
	<path fill="#CA3836" d="M475.709,115.88h145.265v145.263H475.709V115.88z M548.344,152.198v72.63h36.315v-72.63H548.344z"/>
	<g>
		<path fill="#CA3836" d="M776.01,115.88v144.855h-48.288v24.138h-96.565V115.88H776.01z M655.301,140.027v120.709h48.282v-24.144
			h48.282v-96.565H655.301z M703.583,164.165h24.139v48.283h-24.139V164.165z"/>
		<path fill="#CA3836" d="M751.865,260.736V115.88H945v144.855H751.865z M776.01,140.027v96.565h48.282v-72.427h24.139v72.427
			h24.144v-72.427h24.144v72.427h24.144v-96.565H776.01z"/>
	</g>
</g>
</svg>
